# MagicaVoxel @ Ephtracy

# group
o Blue

# material
mtllib Blue-0-Blue.mtl
usemtl palette

# normals
vn -1 0 0
vn 1 0 0
vn 0 0 1
vn 0 0 -1
vn 0 -1 0
vn 0 1 0

# texcoords
vt 0.611328 0.5
vt 0.751953 0.5
vt 0.775391 0.5
vt 0.783203 0.5
vt 0.787109 0.5
vt 0.806641 0.5
vt 0.810547 0.5
vt 0.873047 0.5
vt 0.876953 0.5
vt 0.916016 0.5

# verts
v -0.4 0 0.3
v -0.4 0 0.2
v -0.4 0 0.1
v -0.4 0 -0.1
v -0.4 0 -0.2
v -0.4 0 -0.3
v -0.4 0.1 0.3
v -0.4 0.1 0.2
v -0.4 0.1 0.1
v -0.4 0.1 -0.1
v -0.4 0.1 -0.2
v -0.4 0.1 -0.3
v -0.3 0 0.4
v -0.3 0 0.3
v -0.3 0 -0.3
v -0.3 0 -0.4
v -0.3 0.1 0.4
v -0.3 0.1 0.3
v -0.3 0.1 -0.3
v -0.3 0.1 -0.4
v 0.3 0 0.4
v 0.3 0 0.3
v 0.3 0 -0.3
v 0.3 0 -0.4
v 0.3 0.1 0.4
v 0.3 0.1 0.3
v 0.3 0.1 -0.3
v 0.3 0.1 -0.4
v 0.4 0 0.3
v 0.4 0 0.2
v 0.4 0 0.1
v 0.4 0 0
v 0.4 0 -0.1
v 0.4 0 -0.2
v 0.4 0 -0.3
v 0.4 0.1 0.3
v 0.4 0.1 0.2
v 0.4 0.1 0.1
v 0.4 0.1 0
v 0.4 0.1 -0.1
v 0.4 0.1 -0.2
v 0.4 0.1 -0.3
v -0.3 0 0.4
v -0.3 0.1 0.4
v -0.2 0 0.4
v -0.2 0.1 0.4
v 0.1 0 0.4
v 0.1 0.1 0.4
v 0.3 0 0.4
v 0.3 0.1 0.4
v -0.4 0 0.3
v -0.4 0.1 0.3
v -0.3 0 0.3
v -0.3 0.1 0.3
v 0.3 0 0.3
v 0.3 0.1 0.3
v 0.4 0 0.3
v 0.4 0.1 0.3
v -0.4 0 -0.3
v -0.4 0.1 -0.3
v -0.3 0 -0.3
v -0.3 0.1 -0.3
v 0.3 0 -0.3
v 0.3 0.1 -0.3
v 0.4 0 -0.3
v 0.4 0.1 -0.3
v -0.3 0 -0.4
v -0.3 0.1 -0.4
v -0.2 0 -0.4
v -0.2 0.1 -0.4
v -0.1 0 -0.4
v -0.1 0.1 -0.4
v 0.1 0 -0.4
v 0.1 0.1 -0.4
v 0.2 0 -0.4
v 0.2 0.1 -0.4
v 0.3 0 -0.4
v 0.3 0.1 -0.4
v -0.3 0 0.4
v -0.2 0 0.4
v 0.1 0 0.4
v 0.3 0 0.4
v -0.4 0 0.3
v -0.3 0 0.3
v -0.2 0 0.3
v 0.1 0 0.3
v 0.3 0 0.3
v 0.4 0 0.3
v -0.4 0 0.2
v -0.3 0 0.2
v -0.2 0 0.2
v 0.3 0 0.2
v 0.4 0 0.2
v -0.4 0 0.1
v -0.3 0 0.1
v 0.3 0 0.1
v 0.4 0 0.1
v -0.3 0 0
v -0.2 0 0
v -0.1 0 0
v 0 0 0
v 0.1 0 0
v 0.2 0 0
v 0.3 0 0
v 0.4 0 0
v -0.4 0 -0.1
v -0.3 0 -0.1
v -0.2 0 -0.1
v -0.1 0 -0.1
v 0 0 -0.1
v 0.1 0 -0.1
v 0.2 0 -0.1
v 0.3 0 -0.1
v 0.4 0 -0.1
v -0.4 0 -0.2
v -0.3 0 -0.2
v -0.1 0 -0.2
v 0 0 -0.2
v 0.1 0 -0.2
v 0.2 0 -0.2
v 0.3 0 -0.2
v 0.4 0 -0.2
v -0.4 0 -0.3
v -0.3 0 -0.3
v -0.2 0 -0.3
v -0.1 0 -0.3
v 0.1 0 -0.3
v 0.2 0 -0.3
v 0.3 0 -0.3
v 0.4 0 -0.3
v -0.3 0 -0.4
v -0.2 0 -0.4
v -0.1 0 -0.4
v 0.1 0 -0.4
v 0.2 0 -0.4
v 0.3 0 -0.4
v -0.3 0.1 0.4
v -0.2 0.1 0.4
v 0.1 0.1 0.4
v 0.3 0.1 0.4
v -0.4 0.1 0.3
v -0.3 0.1 0.3
v -0.2 0.1 0.3
v 0.1 0.1 0.3
v 0.3 0.1 0.3
v 0.4 0.1 0.3
v -0.4 0.1 0.2
v -0.3 0.1 0.2
v -0.2 0.1 0.2
v 0.3 0.1 0.2
v 0.4 0.1 0.2
v -0.4 0.1 0.1
v -0.3 0.1 0.1
v 0.3 0.1 0.1
v 0.4 0.1 0.1
v -0.3 0.1 0
v -0.2 0.1 0
v -0.1 0.1 0
v 0 0.1 0
v 0.1 0.1 0
v 0.2 0.1 0
v 0.3 0.1 0
v 0.4 0.1 0
v -0.4 0.1 -0.1
v -0.3 0.1 -0.1
v -0.2 0.1 -0.1
v -0.1 0.1 -0.1
v 0 0.1 -0.1
v 0.1 0.1 -0.1
v 0.2 0.1 -0.1
v 0.3 0.1 -0.1
v 0.4 0.1 -0.1
v -0.4 0.1 -0.2
v -0.3 0.1 -0.2
v -0.1 0.1 -0.2
v 0 0.1 -0.2
v 0.1 0.1 -0.2
v 0.2 0.1 -0.2
v 0.3 0.1 -0.2
v 0.4 0.1 -0.2
v -0.4 0.1 -0.3
v -0.3 0.1 -0.3
v -0.2 0.1 -0.3
v -0.1 0.1 -0.3
v 0.1 0.1 -0.3
v 0.2 0.1 -0.3
v 0.3 0.1 -0.3
v 0.4 0.1 -0.3
v -0.3 0.1 -0.4
v -0.2 0.1 -0.4
v -0.1 0.1 -0.4
v 0.1 0.1 -0.4
v 0.2 0.1 -0.4
v 0.3 0.1 -0.4

# faces
f 7/6/1 2/6/1 1/6/1
f 8/7/1 3/7/1 2/7/1
f 8/6/1 2/6/1 7/6/1
f 9/6/1 4/6/1 3/6/1
f 9/7/1 3/7/1 8/7/1
f 10/4/1 5/4/1 4/4/1
f 10/6/1 4/6/1 9/6/1
f 11/7/1 6/7/1 5/7/1
f 11/4/1 5/4/1 10/4/1
f 12/7/1 6/7/1 11/7/1
f 17/7/1 14/7/1 13/7/1
f 18/7/1 14/7/1 17/7/1
f 19/4/1 16/4/1 15/4/1
f 20/4/1 16/4/1 19/4/1
f 21/4/2 22/4/2 25/4/2
f 25/4/2 22/4/2 26/4/2
f 23/7/2 24/7/2 27/7/2
f 27/7/2 24/7/2 28/7/2
f 29/6/2 30/6/2 36/6/2
f 30/7/2 31/7/2 37/7/2
f 36/6/2 30/6/2 37/6/2
f 31/5/2 32/5/2 38/5/2
f 37/7/2 31/7/2 38/7/2
f 32/7/2 33/7/2 39/7/2
f 38/5/2 32/5/2 39/5/2
f 33/4/2 34/4/2 40/4/2
f 39/7/2 33/7/2 40/7/2
f 34/6/2 35/6/2 41/6/2
f 40/4/2 34/4/2 41/4/2
f 41/6/2 35/6/2 42/6/2
f 45/7/3 44/7/3 43/7/3
f 46/7/3 44/7/3 45/7/3
f 47/5/3 46/5/3 45/5/3
f 48/5/3 46/5/3 47/5/3
f 49/4/3 48/4/3 47/4/3
f 50/4/3 48/4/3 49/4/3
f 53/6/3 52/6/3 51/6/3
f 54/6/3 52/6/3 53/6/3
f 57/6/3 56/6/3 55/6/3
f 58/6/3 56/6/3 57/6/3
f 59/7/4 60/7/4 61/7/4
f 61/7/4 60/7/4 62/7/4
f 63/6/4 64/6/4 65/6/4
f 65/6/4 64/6/4 66/6/4
f 67/4/4 68/4/4 69/4/4
f 69/4/4 68/4/4 70/4/4
f 69/6/4 70/6/4 71/6/4
f 71/6/4 70/6/4 72/6/4
f 71/5/4 72/5/4 73/5/4
f 73/5/4 72/5/4 74/5/4
f 73/6/4 74/6/4 75/6/4
f 75/6/4 74/6/4 76/6/4
f 75/7/4 76/7/4 77/7/4
f 77/7/4 76/7/4 78/7/4
f 84/7/5 80/7/5 79/7/5
f 85/5/5 81/5/5 80/5/5
f 85/7/5 80/7/5 84/7/5
f 86/4/5 82/4/5 81/4/5
f 86/5/5 81/5/5 85/5/5
f 87/4/5 82/4/5 86/4/5
f 89/6/5 84/6/5 83/6/5
f 90/1/5 85/1/5 84/1/5
f 90/6/5 84/6/5 89/6/5
f 91/2/5 86/2/5 85/2/5
f 91/1/5 85/1/5 90/1/5
f 91/2/5 87/2/5 86/2/5
f 92/6/5 88/6/5 87/6/5
f 92/2/5 87/2/5 91/2/5
f 93/6/5 88/6/5 92/6/5
f 94/7/5 90/7/5 89/7/5
f 95/2/5 91/2/5 90/2/5
f 95/7/5 90/7/5 94/7/5
f 95/2/5 92/2/5 91/2/5
f 96/7/5 93/7/5 92/7/5
f 96/2/5 92/2/5 95/2/5
f 97/7/5 93/7/5 96/7/5
f 98/6/5 95/6/5 94/6/5
f 98/2/5 96/2/5 95/2/5
f 99/2/5 96/2/5 98/2/5
f 100/2/5 96/2/5 99/2/5
f 101/2/5 96/2/5 100/2/5
f 102/2/5 96/2/5 101/2/5
f 103/2/5 96/2/5 102/2/5
f 104/5/5 97/5/5 96/5/5
f 104/2/5 96/2/5 103/2/5
f 105/5/5 97/5/5 104/5/5
f 106/6/5 98/6/5 94/6/5
f 107/3/5 99/3/5 98/3/5
f 107/6/5 98/6/5 106/6/5
f 108/2/5 100/2/5 99/2/5
f 108/3/5 99/3/5 107/3/5
f 109/10/5 101/10/5 100/10/5
f 109/2/5 100/2/5 108/2/5
f 110/2/5 102/2/5 101/2/5
f 110/10/5 101/10/5 109/10/5
f 111/8/5 103/8/5 102/8/5
f 111/2/5 102/2/5 110/2/5
f 112/2/5 104/2/5 103/2/5
f 112/8/5 103/8/5 111/8/5
f 113/7/5 105/7/5 104/7/5
f 113/2/5 104/2/5 112/2/5
f 114/7/5 105/7/5 113/7/5
f 115/4/5 107/4/5 106/4/5
f 116/2/5 108/2/5 107/2/5
f 116/4/5 107/4/5 115/4/5
f 116/2/5 109/2/5 108/2/5
f 117/9/5 110/9/5 109/9/5
f 117/2/5 109/2/5 116/2/5
f 118/2/5 111/2/5 110/2/5
f 118/9/5 110/9/5 117/9/5
f 119/10/5 112/10/5 111/10/5
f 119/2/5 111/2/5 118/2/5
f 120/2/5 113/2/5 112/2/5
f 120/10/5 112/10/5 119/10/5
f 121/4/5 114/4/5 113/4/5
f 121/2/5 113/2/5 120/2/5
f 122/4/5 114/4/5 121/4/5
f 123/7/5 116/7/5 115/7/5
f 124/2/5 120/2/5 119/2/5
f 124/7/5 116/7/5 123/7/5
f 124/2/5 117/2/5 116/2/5
f 124/2/5 118/2/5 117/2/5
f 124/2/5 121/2/5 120/2/5
f 124/2/5 119/2/5 118/2/5
f 125/2/5 121/2/5 124/2/5
f 126/2/5 121/2/5 125/2/5
f 127/2/5 121/2/5 126/2/5
f 128/2/5 121/2/5 127/2/5
f 129/6/5 122/6/5 121/6/5
f 129/2/5 121/2/5 128/2/5
f 130/6/5 122/6/5 129/6/5
f 131/4/5 125/4/5 124/4/5
f 132/6/5 126/6/5 125/6/5
f 132/4/5 125/4/5 131/4/5
f 133/5/5 127/5/5 126/5/5
f 133/6/5 126/6/5 132/6/5
f 134/6/5 128/6/5 127/6/5
f 134/5/5 127/5/5 133/5/5
f 135/7/5 129/7/5 128/7/5
f 135/6/5 128/6/5 134/6/5
f 136/7/5 129/7/5 135/7/5
f 137/7/6 138/7/6 142/7/6
f 138/5/6 139/5/6 143/5/6
f 142/7/6 138/7/6 143/7/6
f 139/4/6 140/4/6 144/4/6
f 143/5/6 139/5/6 144/5/6
f 144/4/6 140/4/6 145/4/6
f 141/6/6 142/6/6 147/6/6
f 142/1/6 143/1/6 148/1/6
f 147/6/6 142/6/6 148/6/6
f 143/2/6 144/2/6 149/2/6
f 148/1/6 143/1/6 149/1/6
f 144/2/6 145/2/6 149/2/6
f 145/6/6 146/6/6 150/6/6
f 149/2/6 145/2/6 150/2/6
f 150/6/6 146/6/6 151/6/6
f 147/7/6 148/7/6 152/7/6
f 148/2/6 149/2/6 153/2/6
f 152/7/6 148/7/6 153/7/6
f 149/2/6 150/2/6 153/2/6
f 150/7/6 151/7/6 154/7/6
f 153/2/6 150/2/6 154/2/6
f 154/7/6 151/7/6 155/7/6
f 152/6/6 153/6/6 156/6/6
f 153/2/6 154/2/6 156/2/6
f 156/2/6 154/2/6 157/2/6
f 157/2/6 154/2/6 158/2/6
f 158/2/6 154/2/6 159/2/6
f 159/2/6 154/2/6 160/2/6
f 160/2/6 154/2/6 161/2/6
f 154/5/6 155/5/6 162/5/6
f 161/2/6 154/2/6 162/2/6
f 162/5/6 155/5/6 163/5/6
f 152/6/6 156/6/6 164/6/6
f 156/3/6 157/3/6 165/3/6
f 164/6/6 156/6/6 165/6/6
f 157/2/6 158/2/6 166/2/6
f 165/3/6 157/3/6 166/3/6
f 158/10/6 159/10/6 167/10/6
f 166/2/6 158/2/6 167/2/6
f 159/2/6 160/2/6 168/2/6
f 167/10/6 159/10/6 168/10/6
f 160/8/6 161/8/6 169/8/6
f 168/2/6 160/2/6 169/2/6
f 161/2/6 162/2/6 170/2/6
f 169/8/6 161/8/6 170/8/6
f 162/7/6 163/7/6 171/7/6
f 170/2/6 162/2/6 171/2/6
f 171/7/6 163/7/6 172/7/6
f 164/4/6 165/4/6 173/4/6
f 165/2/6 166/2/6 174/2/6
f 173/4/6 165/4/6 174/4/6
f 166/2/6 167/2/6 174/2/6
f 167/9/6 168/9/6 175/9/6
f 174/2/6 167/2/6 175/2/6
f 168/2/6 169/2/6 176/2/6
f 175/9/6 168/9/6 176/9/6
f 169/10/6 170/10/6 177/10/6
f 176/2/6 169/2/6 177/2/6
f 170/2/6 171/2/6 178/2/6
f 177/10/6 170/10/6 178/10/6
f 171/4/6 172/4/6 179/4/6
f 178/2/6 171/2/6 179/2/6
f 179/4/6 172/4/6 180/4/6
f 173/7/6 174/7/6 181/7/6
f 177/2/6 178/2/6 182/2/6
f 181/7/6 174/7/6 182/7/6
f 174/2/6 175/2/6 182/2/6
f 175/2/6 176/2/6 182/2/6
f 178/2/6 179/2/6 182/2/6
f 176/2/6 177/2/6 182/2/6
f 182/2/6 179/2/6 183/2/6
f 183/2/6 179/2/6 184/2/6
f 184/2/6 179/2/6 185/2/6
f 185/2/6 179/2/6 186/2/6
f 179/6/6 180/6/6 187/6/6
f 186/2/6 179/2/6 187/2/6
f 187/6/6 180/6/6 188/6/6
f 182/4/6 183/4/6 189/4/6
f 183/6/6 184/6/6 190/6/6
f 189/4/6 183/4/6 190/4/6
f 184/5/6 185/5/6 191/5/6
f 190/6/6 184/6/6 191/6/6
f 185/6/6 186/6/6 192/6/6
f 191/5/6 185/5/6 192/5/6
f 186/7/6 187/7/6 193/7/6
f 192/6/6 186/6/6 193/6/6
f 193/7/6 187/7/6 194/7/6
