# MagicaVoxel @ Ephtracy

# group
o DirtSide

# material
mtllib DirtSideTop-0-DirtSide.mtl
usemtl palette

# normals
vn -1 0 0
vn 1 0 0
vn 0 0 1
vn 0 0 -1
vn 0 -1 0
vn 0 1 0

# texcoords
vt 0.00195313 0.5
vt 0.00585938 0.5
vt 0.00976563 0.5
vt 0.0136719 0.5
vt 0.0175781 0.5

# verts
v -0.4 -0.4 0.4
v -0.4 -0.4 0
v -0.4 -0.4 -0.4
v -0.4 0.1 0.4
v -0.4 0.1 0.1
v -0.4 0.2 0.4
v -0.4 0.2 0.1
v -0.4 0.3 0.1
v -0.4 0.3 0
v -0.4 0.4 0
v -0.4 0.4 -0.4
v 0.3 0.2 0.2
v 0.3 0.2 0.1
v 0.3 0.3 0.2
v 0.3 0.3 0.1
v 0.4 -0.4 0.4
v 0.4 -0.4 0
v 0.4 -0.4 -0.4
v 0.4 0.1 0.4
v 0.4 0.1 0.3
v 0.4 0.1 0.2
v 0.4 0.1 0
v 0.4 0.2 0.4
v 0.4 0.2 0.3
v 0.4 0.2 0.2
v 0.4 0.3 0.2
v 0.4 0.3 0
v 0.4 0.4 0
v 0.4 0.4 -0.4
v -0.4 -0.4 0.4
v -0.4 0.1 0.4
v -0.4 0.2 0.4
v -0.1 0.1 0.4
v -0.1 0.2 0.4
v 0.1 0.1 0.4
v 0.1 0.2 0.4
v 0.2 0.1 0.4
v 0.2 0.2 0.4
v 0.4 -0.4 0.4
v 0.4 0.1 0.4
v 0.4 0.2 0.4
v 0.3 0.2 0.2
v 0.3 0.3 0.2
v 0.4 0.2 0.2
v 0.4 0.3 0.2
v -0.4 0.2 0.1
v -0.4 0.3 0.1
v -0.3 0.2 0.1
v -0.3 0.3 0.1
v -0.1 0.2 0.1
v -0.1 0.3 0.1
v 0 0.2 0.1
v 0 0.3 0.1
v 0.2 0.2 0.1
v 0.3 0.2 0.1
v 0.3 0.3 0.1
v -0.4 0.3 0
v -0.4 0.4 0
v -0.3 0.3 0
v -0.3 0.4 0
v -0.1 0.3 0
v -0.1 0.4 0
v 0 0.3 0
v 0 0.4 0
v 0.3 0.3 0
v 0.3 0.4 0
v 0.4 0.3 0
v 0.4 0.4 0
v -0.4 -0.4 -0.4
v -0.4 0.4 -0.4
v -0.3 -0.3 -0.4
v -0.3 0.3 -0.4
v 0.3 -0.3 -0.4
v 0.3 0.3 -0.4
v 0.4 -0.4 -0.4
v 0.4 0.4 -0.4
v -0.4 -0.4 0.4
v 0.4 -0.4 0.4
v -0.4 -0.4 0
v 0.4 -0.4 0
v -0.4 -0.4 -0.4
v 0.4 -0.4 -0.4
v -0.4 0.2 0.4
v -0.1 0.2 0.4
v 0.1 0.2 0.4
v 0.2 0.2 0.4
v 0.4 0.2 0.4
v -0.2 0.2 0.3
v -0.1 0.2 0.3
v 0.1 0.2 0.3
v 0.2 0.2 0.3
v 0.4 0.2 0.3
v -0.3 0.2 0.2
v -0.2 0.2 0.2
v 0 0.2 0.2
v 0.1 0.2 0.2
v 0.3 0.2 0.2
v 0.4 0.2 0.2
v -0.4 0.2 0.1
v -0.3 0.2 0.1
v -0.1 0.2 0.1
v 0 0.2 0.1
v 0.2 0.2 0.1
v 0.3 0.2 0.1
v 0.3 0.3 0.2
v 0.4 0.3 0.2
v -0.4 0.3 0.1
v -0.3 0.3 0.1
v -0.1 0.3 0.1
v 0 0.3 0.1
v 0.3 0.3 0.1
v -0.4 0.3 0
v -0.3 0.3 0
v -0.1 0.3 0
v 0 0.3 0
v 0.3 0.3 0
v 0.4 0.3 0
v -0.4 0.4 0
v -0.3 0.4 0
v -0.1 0.4 0
v 0 0.4 0
v 0.3 0.4 0
v 0.4 0.4 0
v -0.3 0.4 -0.3
v -0.1 0.4 -0.3
v 0 0.4 -0.3
v 0.3 0.4 -0.3
v -0.4 0.4 -0.4
v 0.4 0.4 -0.4

# faces
f 4/1/1 2/1/1 1/1/1
f 5/1/1 2/1/1 4/1/1
f 6/2/1 5/2/1 4/2/1
f 7/1/1 2/1/1 5/1/1
f 7/2/1 5/2/1 6/2/1
f 8/1/1 2/1/1 7/1/1
f 9/5/1 3/5/1 2/5/1
f 9/1/1 2/1/1 8/1/1
f 10/5/1 3/5/1 9/5/1
f 11/5/1 3/5/1 10/5/1
f 14/2/1 13/2/1 12/2/1
f 15/2/1 13/2/1 14/2/1
f 16/1/2 17/1/2 19/1/2
f 19/1/2 17/1/2 20/1/2
f 20/1/2 17/1/2 21/1/2
f 17/5/2 18/5/2 22/5/2
f 21/1/2 17/1/2 22/1/2
f 19/3/2 20/3/2 23/3/2
f 20/1/2 21/1/2 24/1/2
f 23/3/2 20/3/2 24/3/2
f 21/2/2 22/2/2 25/2/2
f 24/1/2 21/1/2 25/1/2
f 25/2/2 22/2/2 26/2/2
f 22/5/2 18/5/2 27/5/2
f 26/2/2 22/2/2 27/2/2
f 27/5/2 18/5/2 28/5/2
f 28/5/2 18/5/2 29/5/2
f 33/1/3 31/1/3 30/1/3
f 33/2/3 32/2/3 31/2/3
f 34/2/3 32/2/3 33/2/3
f 35/1/3 33/1/3 30/1/3
f 35/1/3 34/1/3 33/1/3
f 36/1/3 34/1/3 35/1/3
f 37/1/3 35/1/3 30/1/3
f 37/2/3 36/2/3 35/2/3
f 38/2/3 36/2/3 37/2/3
f 39/1/3 37/1/3 30/1/3
f 40/3/3 38/3/3 37/3/3
f 40/1/3 37/1/3 39/1/3
f 41/3/3 38/3/3 40/3/3
f 44/2/3 43/2/3 42/2/3
f 45/2/3 43/2/3 44/2/3
f 48/1/3 47/1/3 46/1/3
f 49/1/3 47/1/3 48/1/3
f 50/4/3 49/4/3 48/4/3
f 51/4/3 49/4/3 50/4/3
f 52/3/3 51/3/3 50/3/3
f 53/3/3 51/3/3 52/3/3
f 54/4/3 53/4/3 52/4/3
f 55/4/3 53/4/3 54/4/3
f 56/4/3 53/4/3 55/4/3
f 59/5/3 58/5/3 57/5/3
f 60/5/3 58/5/3 59/5/3
f 61/4/3 60/4/3 59/4/3
f 62/4/3 60/4/3 61/4/3
f 63/5/3 62/5/3 61/5/3
f 64/5/3 62/5/3 63/5/3
f 65/4/3 64/4/3 63/4/3
f 66/4/3 64/4/3 65/4/3
f 67/5/3 66/5/3 65/5/3
f 68/5/3 66/5/3 67/5/3
f 69/5/4 70/5/4 71/5/4
f 71/5/4 70/5/4 72/5/4
f 69/5/4 71/5/4 73/5/4
f 71/4/4 72/4/4 73/4/4
f 72/5/4 70/5/4 74/5/4
f 73/4/4 72/4/4 74/4/4
f 69/5/4 73/5/4 75/5/4
f 73/5/4 74/5/4 75/5/4
f 74/5/4 70/5/4 76/5/4
f 75/5/4 74/5/4 76/5/4
f 79/1/5 78/1/5 77/1/5
f 80/1/5 78/1/5 79/1/5
f 81/5/5 80/5/5 79/5/5
f 82/5/5 80/5/5 81/5/5
f 83/2/6 84/2/6 88/2/6
f 84/1/6 85/1/6 89/1/6
f 88/2/6 84/2/6 89/2/6
f 85/2/6 86/2/6 90/2/6
f 89/1/6 85/1/6 90/1/6
f 86/3/6 87/3/6 91/3/6
f 90/2/6 86/2/6 91/2/6
f 91/3/6 87/3/6 92/3/6
f 83/2/6 88/2/6 93/2/6
f 89/1/6 90/1/6 94/1/6
f 93/2/6 88/2/6 94/2/6
f 88/1/6 89/1/6 94/1/6
f 94/1/6 90/1/6 95/1/6
f 90/3/6 91/3/6 96/3/6
f 95/1/6 90/1/6 96/1/6
f 91/1/6 92/1/6 97/1/6
f 97/1/6 92/1/6 98/1/6
f 83/2/6 93/2/6 99/2/6
f 94/1/6 95/1/6 100/1/6
f 99/2/6 93/2/6 100/2/6
f 93/1/6 94/1/6 100/1/6
f 100/1/6 95/1/6 101/1/6
f 95/3/6 96/3/6 102/3/6
f 101/1/6 95/1/6 102/1/6
f 96/3/6 91/3/6 103/3/6
f 102/3/6 96/3/6 103/3/6
f 91/1/6 97/1/6 103/1/6
f 103/1/6 97/1/6 104/1/6
f 105/2/6 106/2/6 111/2/6
f 107/1/6 108/1/6 112/1/6
f 108/4/6 109/4/6 113/4/6
f 112/1/6 108/1/6 113/1/6
f 109/3/6 110/3/6 114/3/6
f 113/4/6 109/4/6 114/4/6
f 110/4/6 111/4/6 115/4/6
f 114/3/6 110/3/6 115/3/6
f 111/2/6 106/2/6 116/2/6
f 115/4/6 111/4/6 116/4/6
f 116/2/6 106/2/6 117/2/6
f 118/5/6 119/5/6 124/5/6
f 119/4/6 120/4/6 124/4/6
f 120/5/6 121/5/6 125/5/6
f 124/4/6 120/4/6 125/4/6
f 121/4/6 122/4/6 126/4/6
f 125/5/6 121/5/6 126/5/6
f 122/5/6 123/5/6 127/5/6
f 126/4/6 122/4/6 127/4/6
f 125/5/6 126/5/6 128/5/6
f 124/5/6 125/5/6 128/5/6
f 126/5/6 127/5/6 128/5/6
f 118/5/6 124/5/6 128/5/6
f 127/5/6 123/5/6 129/5/6
f 128/5/6 127/5/6 129/5/6
